<?xml version="1.0" encoding="utf-8"?>
<!-- Generator: Adobe Illustrator 16.0.0, SVG Export Plug-In . SVG Version: 6.00 Build 0)  -->
<!DOCTYPE svg PUBLIC "-//W3C//DTD SVG 1.1//EN" "http://www.w3.org/Graphics/SVG/1.1/DTD/svg11.dtd" [
	<!ENTITY ns_extend "http://ns.adobe.com/Extensibility/1.0/">
	<!ENTITY ns_ai "http://ns.adobe.com/AdobeIllustrator/10.0/">
	<!ENTITY ns_graphs "http://ns.adobe.com/Graphs/1.0/">
	<!ENTITY ns_vars "http://ns.adobe.com/Variables/1.0/">
	<!ENTITY ns_imrep "http://ns.adobe.com/ImageReplacement/1.0/">
	<!ENTITY ns_sfw "http://ns.adobe.com/SaveForWeb/1.0/">
	<!ENTITY ns_custom "http://ns.adobe.com/GenericCustomNamespace/1.0/">
	<!ENTITY ns_adobe_xpath "http://ns.adobe.com/XPath/1.0/">
]>
<svg version="1.1" xmlns:x="&ns_extend;" xmlns:i="&ns_ai;" xmlns:graph="&ns_graphs;"
	 xmlns="http://www.w3.org/2000/svg" xmlns:xlink="http://www.w3.org/1999/xlink" x="0px" y="0px" width="576px" height="360px"
	 viewBox="0 0 576 360" enable-background="new 0 0 576 360" xml:space="preserve">
<metadata>
	<sfw  xmlns="&ns_sfw;">
		<slices></slices>
		<sliceSourceBounds  width="501.143" height="152.648" x="-70.571" y="-249.438" bottomLeftOrigin="true"></sliceSourceBounds>
	</sfw>
</metadata>
<g id="a_shadow">
</g>
<g id="x_shadow">
</g>
<g id="ax_outline">
</g>
<g id="final">
	<g>
		<path fill="none" stroke="#000000" stroke-width="2" stroke-miterlimit="10" d="M288,249.438"/>
		<path fill="none" stroke="#000000" stroke-width="2" stroke-miterlimit="10" d="M288,249.438"/>
		<g>
			<g>
				<g>
					<path fill="#FFFFFF" stroke="#000000" stroke-width="1.5" stroke-miterlimit="10" d="M231.756,221.071"/>
					<g>
						<circle cx="218.385" cy="214.517" r="2.329"/>
						<g>
							<polygon points="69.34,105.526 77.354,106.793 90.842,135.686 64.678,224.79 55.314,225.778 83.001,135.686 							"/>
							<polygon points="89.661,150.776 98.975,151.169 137.536,236.005 129.428,237.718 							"/>
							<polygon points="129.583,96.79 121.885,98.068 121.885,145.915 156.25,186.72 124.444,226.743 129.428,237.718 
								169.123,186.632 131.255,141.718 							"/>
							<polygon points="225.504,121.053 212.115,122.189 177.418,161.953 187.544,170.211 							"/>
							<polyline points="200.793,225.778 182.789,202.312 177.418,210.122 188.85,225.425 200.793,226.743 							"/>
							<g>
								<polygon fill="#FFFFFF" points="71.46,227.178 81.631,185.367 67.854,184.549 55.042,224.679 38.693,222.55 69.591,108.426 
									82.36,135.764 71.308,172.54 84.669,173.547 89.914,153.731 127.737,236.427 								"/>
								<path d="M69.842,111.326l11.451,24.516L70.708,171.06l-0.716,2.383l2.481,0.187l11.291,0.852l1.658,0.125L85.849,173
									l4.317-16.312l35.882,78.449l-53.361-8.771l9.633-39.599l0.566-2.327l-2.391-0.142l-11.806-0.701l-1.551-0.093l-0.473,1.48
									l-12.321,38.595l-14.386-1.873L69.842,111.326 M69.34,105.526L37.429,223.394l18.312,2.385l12.829-40.186l11.806,0.701
									l-10.143,41.695l59.194,9.729l-39.767-86.942l-5.746,21.712l-11.291-0.852l10.804-35.95L69.34,105.526L69.34,105.526z"/>
							</g>
							<g>
								<polygon fill="#FFFFFF" points="169.375,185.972 131.888,140.992 130.668,99.67 187.532,168.38 224.61,123.875 
									223.986,159.668 203.049,186.808 230.886,221.588 201.372,225.675 186.619,207.292 168.137,230.795 131.841,236.359 
																	"/>
								<path d="M131.754,102.55l54.239,65.54l1.536,1.856l1.542-1.851l34.49-41.398l-0.568,32.623l-20.254,26.254l-0.96,1.244
									l0.982,1.228l26.246,32.793l-27.209,3.768l-13.61-16.959l-1.576-1.963l-1.556,1.979l-17.46,22.203l-33.495,5.136
									l35.606-47.801l0.941-1.264l-1.009-1.211l-36.762-44.109L131.754,102.55 M129.583,96.79l1.315,44.577l37.204,44.64
									l-38.52,51.711l39.096-5.994l17.948-22.824l14.32,17.844l31.819-4.406l-28.445-35.541l20.659-26.779l0.679-38.964
									l-38.125,45.762L129.583,96.79L129.583,96.79z M225.659,121.053h0.005H225.659z"/>
							</g>
							
								<line fill="#FFFFFF" stroke="#000000" stroke-width="2" stroke-miterlimit="10" x1="89.952" y1="153.667" x2="71.117" y2="228.134"/>
							
								<line fill="#FFFFFF" stroke="#000000" stroke-width="2" stroke-linecap="round" stroke-miterlimit="10" x1="71.266" y1="172.605" x2="67.389" y2="186.356"/>
							
								<line fill="#FFFFFF" stroke="#000000" stroke-width="2" stroke-linecap="round" stroke-miterlimit="10" x1="187.563" y1="168.325" x2="202.679" y2="186.446"/>
							
								<line fill="none" stroke="#000000" stroke-width="3" stroke-linecap="round" stroke-miterlimit="10" x1="168.121" y1="185.315" x2="186.929" y2="208.483"/>
							<g>
								<polygon points="51.072,220.048 43.249,219.29 71.267,121.697 75.804,135.99 74.551,136.388 71.33,126.245 44.95,218.134 
									51.199,218.739 								"/>
							</g>
							<path fill="none" stroke="#000000" stroke-width="1.5" stroke-linecap="round" stroke-miterlimit="10" d="M51.794,213.474"/>
							<path fill="none" stroke="#000000" stroke-width="1.5" stroke-linecap="round" stroke-miterlimit="10" d="M71.117,143.076"/>
							<g>
								<path d="M117.952,229.024l-24.506-4.764c-0.357-0.068-0.59-0.414-0.521-0.771s0.413-0.588,0.771-0.52l21.986,4.273
									L91.062,173.75l-10.993,49.572c-0.078,0.352-0.432,0.574-0.784,0.498c-0.355-0.08-0.579-0.43-0.5-0.785l11.838-53.386
									L117.952,229.024z"/>
							</g>
							<g>
								<path d="M103.115,219.265c-0.257,0-0.501-0.15-0.607-0.402l-10.302-24.596l-3.593,21.943
									c-0.059,0.357-0.398,0.598-0.755,0.545c-0.359-0.061-0.602-0.398-0.543-0.756l4.332-26.471l12.074,28.826
									c0.141,0.334-0.018,0.721-0.353,0.859C103.286,219.249,103.2,219.265,103.115,219.265z"/>
							</g>
							<g>
								<path d="M146.536,228.622c-0.316,0-0.596-0.229-0.649-0.551c-0.058-0.359,0.186-0.697,0.544-0.756l18.002-2.939
									l17.201-21.766c0.225-0.285,0.64-0.334,0.924-0.107c0.285,0.225,0.334,0.639,0.107,0.924l-17.517,22.168l-18.506,3.021
									C146.607,228.62,146.571,228.622,146.536,228.622z"/>
							</g>
							<g>
								<path d="M199.111,182.208c-0.152,0-0.305-0.052-0.43-0.158c-0.275-0.238-0.306-0.652-0.068-0.928l21.521-24.968v-18.799
									l-24.139,28.721c-0.232,0.278-0.647,0.314-0.927,0.08c-0.277-0.234-0.313-0.648-0.08-0.927l26.46-31.485v22.899
									l-21.839,25.338C199.479,182.132,199.296,182.208,199.111,182.208z"/>
							</g>
							<g>
								<path d="M160.587,219.265c-0.146,0-0.293-0.049-0.415-0.146c-0.281-0.23-0.324-0.645-0.095-0.928l17.146-21.057
									c0.229-0.283,0.644-0.324,0.925-0.096c0.281,0.23,0.324,0.643,0.095,0.926l-17.146,21.061
									C160.968,219.183,160.778,219.265,160.587,219.265z"/>
							</g>
							<g>
								<path d="M194.861,177.169c-0.146,0-0.292-0.048-0.415-0.148c-0.281-0.229-0.323-0.644-0.095-0.925l18.231-22.395
									c0.229-0.28,0.645-0.325,0.927-0.095c0.28,0.229,0.323,0.644,0.094,0.926l-18.231,22.394
									C195.242,177.086,195.053,177.169,194.861,177.169z"/>
							</g>
							<g>
								<path d="M208.142,209.032c-0.184,0-0.367-0.078-0.498-0.229l-70.766-82.096v-9.949c0-0.363,0.295-0.658,0.658-0.658
									s0.658,0.294,0.658,0.658v9.46l70.446,81.725c0.237,0.275,0.206,0.689-0.068,0.928
									C208.447,208.978,208.295,209.032,208.142,209.032z"/>
							</g>
							<g>
								<path d="M204.757,217.513l-0.242-0.285l-66.048-77.398c-0.236-0.276-0.203-0.692,0.073-0.928
									c0.275-0.235,0.69-0.203,0.928,0.074l65.806,77.115l13.194-2.213c0.357-0.062,0.696,0.184,0.757,0.541
									s-0.182,0.697-0.54,0.758L204.757,217.513z"/>
							</g>
							<g>
								<path d="M52.898,212.397c-0.059,0-0.118-0.008-0.179-0.025c-0.349-0.098-0.554-0.461-0.455-0.811l18.798-66.896
									c0.099-0.35,0.461-0.555,0.811-0.456c0.351,0.098,0.555,0.461,0.456,0.812l-18.798,66.895
									C53.45,212.208,53.186,212.397,52.898,212.397z"/>
							</g>
							<circle cx="208.938" cy="209.37" r="2.329"/>
							<circle cx="195.493" cy="165.557" r="2.329"/>
							<circle cx="213.094" cy="154.118" r="2.329"/>
							<circle cx="160.587" cy="218.606" r="2.329"/>
							<circle cx="146.537" cy="227.966" r="2.329"/>
							<g>
								
									<rect x="166.222" y="189.739" transform="matrix(0.7889 0.6145 -0.6145 0.7889 158.1202 -60.3336)" width="1.316" height="20.499"/>
							</g>
							<circle cx="160.587" cy="208.079" r="2.329"/>
							<circle cx="92.603" cy="223.433" r="2.329"/>
							<circle cx="103.115" cy="218.606" r="2.329"/>
							<circle cx="87.964" cy="216.097" r="2.329"/>
							<circle cx="79.426" cy="223.083" r="2.329"/>
							<circle cx="51.136" cy="219.396" r="2.329"/>
							<circle cx="52.985" cy="211.417" r="2.329"/>
							<circle cx="71.696" cy="144.844" r="2.329"/>
							<circle cx="75.177" cy="135.958" r="2.329"/>
							<circle cx="138.968" cy="139.403" r="2.329"/>
							<circle cx="137.537" cy="116.759" r="2.329"/>
						</g>
					</g>
				</g>
				<circle cx="218.385" cy="214.517" r="2.329"/>
			</g>
			<g>
				<path d="M239.685,197.485c0-0.373,0.059-0.74,0.18-1.104c0.12-0.363,0.193-0.564,0.214-0.609l7.312-18.544
					c0.199-0.46,0.487-0.817,0.874-1.07c0.384-0.252,0.84-0.391,1.364-0.412h2.703h2.042c0.571,0.021,1.043,0.176,1.416,0.461
					c0.375,0.286,0.627,0.625,0.758,1.021l7.377,18.544c0.024,0.109,0.088,0.336,0.199,0.676c0.109,0.34,0.166,0.664,0.166,0.973
					c0,0.789-0.44,1.252-1.318,1.383h-4.513c-0.46,0-0.853-0.082-1.172-0.248c-0.315-0.164-0.519-0.4-0.607-0.709l-1.021-3.293
					h-7.345l-1.021,3.293c-0.089,0.309-0.287,0.545-0.593,0.709c-0.309,0.166-0.691,0.248-1.153,0.248h-4.577
					C240.11,198.673,239.685,198.231,239.685,197.485z M252.332,188.985h2.141l-2.603-7.738l-2.567,7.738H252.332z"/>
				<path d="M266.662,197.618c0-0.264,0.075-0.482,0.23-0.658l7.476-10.148l-7.113-9.156c-0.133-0.197-0.199-0.417-0.199-0.658
					c0-0.286,0.1-0.549,0.299-0.791c0.195-0.241,0.425-0.362,0.69-0.362h6.522c0.306,0,0.58,0.142,0.822,0.428l3.295,4.546
					l3.359-4.546c0.088-0.132,0.203-0.236,0.346-0.312c0.141-0.078,0.303-0.115,0.477-0.115h6.457c0.285,0,0.531,0.115,0.74,0.346
					s0.314,0.499,0.314,0.807c0,0.263-0.078,0.483-0.232,0.658l-7.41,9.125l7.805,10.18c0.135,0.195,0.199,0.404,0.199,0.625
					c0,0.285-0.1,0.541-0.295,0.773c-0.197,0.23-0.451,0.346-0.758,0.346h-7.051c-0.174,0-0.346-0.053-0.51-0.166
					c-0.166-0.107-0.303-0.24-0.412-0.395l-3.029-4.281l-2.965,4.281c-0.33,0.375-0.605,0.561-0.823,0.561h-7.149
					c-0.308,0-0.564-0.109-0.774-0.328C266.765,198.155,266.662,197.903,266.662,197.618z"/>
				<path d="M302.925,187.208c0-2.174,0.553-4.184,1.662-6.027c1.109-1.844,2.613-3.311,4.514-4.397
					c1.898-1.087,3.957-1.631,6.178-1.631c2.236,0,4.334,0.572,6.291,1.712c0.393,0.22,0.592,0.54,0.592,0.956
					c0,0.285-0.121,0.571-0.363,0.856l-3.229,3.556c-0.221,0.221-0.473,0.332-0.756,0.332c-0.221,0-0.418-0.046-0.594-0.133
					c-0.594-0.264-1.252-0.396-1.977-0.396c-0.945,0-1.818,0.226-2.619,0.677c-0.803,0.449-1.432,1.057-1.895,1.828
					c-0.459,0.768-0.689,1.613-0.689,2.535c0,0.9,0.234,1.74,0.707,2.52c0.473,0.781,1.104,1.4,1.893,1.861
					c0.791,0.463,1.658,0.691,2.604,0.691c0.68,0,1.393-0.154,2.141-0.461c0.174-0.088,0.363-0.131,0.561-0.131
					c0.285,0,0.525,0.098,0.723,0.295l3.625,3.559c0.264,0.262,0.395,0.559,0.395,0.889c0,0.35-0.164,0.648-0.492,0.889
					c-2.221,1.406-4.525,2.109-6.916,2.109c-2.221,0-4.279-0.545-6.178-1.631c-1.9-1.088-3.404-2.557-4.514-4.414
					C303.478,191.399,302.925,189.382,302.925,187.208z"/>
				<path d="M323.745,187.407c0-2.174,0.541-4.186,1.629-6.029c1.086-1.844,2.553-3.311,4.396-4.398
					c1.846-1.087,3.855-1.629,6.029-1.629s4.188,0.542,6.045,1.629c1.854,1.087,3.326,2.554,4.412,4.398
					c1.088,1.844,1.633,3.855,1.633,6.029s-0.545,4.182-1.633,6.025c-1.086,1.846-2.559,3.312-4.412,4.398
					c-1.857,1.088-3.871,1.631-6.045,1.631s-4.184-0.543-6.029-1.631c-1.844-1.086-3.311-2.553-4.396-4.398
					C324.286,191.589,323.745,189.581,323.745,187.407z M340.938,187.11c0-0.945-0.242-1.811-0.725-2.604
					c-0.484-0.789-1.125-1.42-1.928-1.893c-0.801-0.473-1.664-0.708-2.586-0.708c-0.967,0-1.85,0.235-2.65,0.708
					c-0.803,0.473-1.434,1.104-1.896,1.893c-0.461,0.793-0.689,1.658-0.689,2.604c0,0.943,0.229,1.816,0.689,2.617
					c0.463,0.803,1.094,1.439,1.896,1.912c0.801,0.471,1.684,0.707,2.65,0.707c0.922,0,1.785-0.236,2.586-0.707
					c0.803-0.473,1.443-1.109,1.928-1.912C340.696,188.927,340.938,188.054,340.938,187.11z"/>
				<path d="M369.265,198.573c-0.133-0.066-1.086-1.033-2.865-2.9c-1.779-1.863-4.381-4.621-7.807-8.266
					c-0.33-0.33-0.539-0.494-0.627-0.494c-0.086,0-0.143,0.049-0.164,0.148c-0.021,0.098-0.031,0.256-0.031,0.477v9.848
					c0,0.354-0.129,0.66-0.381,0.922c-0.252,0.266-0.566,0.396-0.938,0.396h-4.381c-0.418,0-0.779-0.17-1.088-0.512
					c-0.309-0.338-0.463-0.74-0.463-1.201V177.59c0-0.482,0.168-0.911,0.496-1.284c0.328-0.374,0.715-0.561,1.152-0.561h4.084
					c0.375,0,0.664,0.05,0.873,0.147c0.209,0.1,0.479,0.325,0.807,0.676c1.012,1.055,2.658,2.773,4.941,5.155
					c2.283,2.383,4.074,4.232,5.369,5.551c0.178,0.111,0.297,0.164,0.361,0.164c0.135,0,0.197-0.176,0.197-0.525v-9.817
					c0-0.35,0.133-0.664,0.398-0.938c0.264-0.275,0.559-0.412,0.887-0.412h4.186c0.482,0,0.9,0.176,1.252,0.527
					c0.35,0.351,0.523,0.757,0.523,1.218v19.6c0,0.439-0.168,0.834-0.508,1.186s-0.729,0.527-1.17,0.527h-3.723
					c-0.416,0-0.709-0.016-0.871-0.051C369.61,198.722,369.44,198.661,369.265,198.573z"/>
				<path d="M378.651,194.687c0-0.395,0.199-0.857,0.594-1.385l1.219-1.582c0.352-0.504,0.631-0.859,0.838-1.068
					c0.211-0.209,0.436-0.312,0.678-0.312c0.197,0,0.438,0.064,0.723,0.195c0.287,0.133,0.68,0.354,1.188,0.66
					c0.064,0.043,0.625,0.428,1.678,1.152c1.057,0.727,2.373,1.043,3.953,0.955c0.529-0.021,0.939-0.17,1.236-0.443
					c0.295-0.275,0.445-0.611,0.445-1.006c0-0.527-0.266-1.01-0.791-1.449c-0.527-0.438-1.273-0.691-2.24-0.758h0.035
					c-1.934-0.395-3.439-0.895-4.516-1.498c-1.074-0.604-1.844-1.322-2.305-2.158c-0.461-0.834-0.738-1.865-0.822-3.096
					c-0.09-1.45,0.217-2.772,0.922-3.97c0.701-1.195,1.713-2.14,3.029-2.832c1.318-0.691,2.832-1.038,4.545-1.038
					c1.273,0,2.547,0.187,3.82,0.559c1.057,0.287,2.016,0.666,2.885,1.137c0.865,0.473,1.553,1.016,2.059,1.631
					c0.307,0.309,0.461,0.593,0.461,0.856c0,0.22-0.082,0.456-0.248,0.708c-0.166,0.253-0.443,0.599-0.84,1.037l-0.955,1.021
					c-0.307,0.329-0.543,0.554-0.707,0.675c-0.166,0.121-0.324,0.182-0.48,0.182c-0.152,0-0.352-0.066-0.592-0.199
					c-0.242-0.131-0.479-0.268-0.709-0.41c-0.229-0.143-0.434-0.269-0.607-0.379c-1.516-0.967-2.844-1.449-3.986-1.449
					c-0.701,0-1.256,0.17-1.664,0.511c-0.404,0.34-0.607,0.752-0.607,1.234s0.197,0.918,0.592,1.301
					c0.396,0.385,0.955,0.631,1.68,0.742c3.141,0.482,5.486,1.416,7.031,2.799c1.551,1.383,2.324,2.965,2.324,4.744
					c0,1.318-0.412,2.586-1.236,3.803c-0.822,1.221-1.963,2.209-3.424,2.965c-1.461,0.758-3.092,1.137-4.893,1.137
					c-2.943,0-5.895-1.031-8.859-3.096C379.134,195.905,378.651,195.278,378.651,194.687z"/>
				<path d="M402.37,188.196l-0.035-11.462c0-0.659,0.375-0.988,1.121-0.988h4.314c0.439,0,0.779,0.087,1.021,0.263
					c0.24,0.177,0.361,0.418,0.361,0.726l0.133,10.74c0.021,1.426,0.412,2.551,1.168,3.375c0.76,0.822,1.785,1.234,3.08,1.234
					c2.549,0,3.822-1.449,3.822-4.348l0.064-10.936c0-0.285,0.137-0.532,0.412-0.741c0.273-0.208,0.6-0.312,0.971-0.312h4.383
					c0.416,0,0.74,0.094,0.971,0.28s0.336,0.444,0.314,0.773v4.875c0,3.029,0.006,4.92,0.016,5.666s0.016,1.143,0.016,1.186
					c0.021,1.777-0.277,3.465-0.906,5.055c-0.625,1.594-1.756,2.922-3.391,3.986c-1.637,1.066-3.838,1.598-6.605,1.598
					c-2.523,0-4.629-0.514-6.307-1.547c-1.682-1.033-2.922-2.377-3.723-4.037C402.769,191.925,402.37,190.13,402.37,188.196z"/>
				<path d="M429.97,198.771c-0.373,0-0.697-0.137-0.971-0.412c-0.277-0.273-0.414-0.619-0.414-1.039v-20.157
					c0-0.417,0.137-0.769,0.414-1.055c0.273-0.285,0.598-0.427,0.971-0.427h4.445c0.373,0,0.697,0.143,0.975,0.427
					c0.273,0.286,0.408,0.638,0.408,1.055v14.758h9.062c0.416,0,0.771,0.129,1.068,0.395c0.299,0.262,0.445,0.592,0.445,0.986v4.15
					c0,0.373-0.146,0.691-0.445,0.955c-0.297,0.266-0.652,0.396-1.068,0.396h-14.033L429.97,198.771z"/>
				<path d="M467.72,175.845c0.373,0,0.703,0.136,0.988,0.411s0.428,0.587,0.428,0.938v3.822c0,0.373-0.143,0.703-0.428,0.987
					c-0.285,0.286-0.615,0.429-0.988,0.429h-5.203v14.887c0,0.42-0.129,0.771-0.381,1.057s-0.564,0.428-0.938,0.428h-4.381
					c-0.375,0-0.686-0.137-0.938-0.412c-0.254-0.275-0.381-0.621-0.381-1.037l0.23-14.922h-5.27c-0.418,0-0.766-0.143-1.037-0.429
					c-0.273-0.284-0.412-0.614-0.412-0.987v-3.822c0-0.372,0.139-0.691,0.412-0.955c0.271-0.263,0.619-0.394,1.037-0.394H467.72z"/>
				<path d="M473.087,197.354V177.26c0-0.417,0.131-0.773,0.393-1.069c0.266-0.298,0.617-0.445,1.057-0.445h4.512
					c0.396,0,0.729,0.147,1.006,0.445c0.273,0.296,0.412,0.653,0.412,1.069v20.094c0,0.461-0.139,0.828-0.412,1.104
					c-0.277,0.273-0.609,0.41-1.006,0.41h-4.512c-0.439,0-0.791-0.137-1.057-0.41C473.218,198.183,473.087,197.815,473.087,197.354z
					"/>
				<path d="M504.149,198.573c-0.131-0.066-1.086-1.033-2.865-2.9c-1.777-1.863-4.381-4.621-7.807-8.266
					c-0.33-0.33-0.539-0.494-0.627-0.494c-0.086,0-0.143,0.049-0.164,0.148c-0.021,0.098-0.031,0.256-0.031,0.477v9.848
					c0,0.354-0.129,0.66-0.381,0.922c-0.252,0.266-0.566,0.396-0.939,0.396h-4.379c-0.418,0-0.781-0.17-1.09-0.512
					c-0.307-0.338-0.459-0.74-0.459-1.201V177.59c0-0.482,0.164-0.911,0.496-1.284c0.326-0.374,0.711-0.561,1.152-0.561h4.082
					c0.375,0,0.664,0.05,0.873,0.147c0.209,0.1,0.477,0.325,0.807,0.676c1.012,1.055,2.656,2.773,4.941,5.155
					c2.283,2.383,4.074,4.232,5.369,5.551c0.178,0.111,0.299,0.164,0.361,0.164c0.135,0,0.199-0.176,0.199-0.525v-9.817
					c0-0.35,0.131-0.664,0.396-0.938c0.262-0.275,0.557-0.412,0.887-0.412h4.186c0.482,0,0.9,0.176,1.252,0.527
					c0.352,0.351,0.525,0.757,0.525,1.218v19.6c0,0.439-0.17,0.834-0.51,1.186c-0.342,0.352-0.73,0.527-1.168,0.527h-3.725
					c-0.414,0-0.707-0.016-0.871-0.051C504.495,198.722,504.327,198.661,504.149,198.573z"/>
				<path d="M513.935,187.274c0-2.24,0.525-4.287,1.58-6.143c1.053-1.855,2.48-3.316,4.281-4.382
					c1.801-1.064,3.756-1.598,5.863-1.598c0.418,0,0.736,0.012,0.957,0.034c1.273,0.088,2.26,0.23,2.963,0.427l0.164,0.034
					c0.242,0.023,0.43,0.11,0.561,0.264c0.131,0.153,0.199,0.351,0.199,0.592c0,0.22-0.045,0.429-0.133,0.626l-1.352,3.063
					c-0.35,0.901-0.877,1.349-1.58,1.349c-1.801,0-3.258,0.375-4.363,1.119c-1.111,0.75-1.83,1.857-2.158,3.328
					c-0.109,0.506-0.168,0.957-0.168,1.352c0,1.162,0.326,2.205,0.975,3.129c0.646,0.922,1.631,1.547,2.949,1.877
					c0.701,0.131,1.326,0.199,1.875,0.199c1.383,0,2.488-0.336,3.311-1.006s1.357-1.521,1.598-2.555h-1.844
					c-0.352,0-0.639-0.113-0.857-0.344c-0.221-0.23-0.328-0.521-0.328-0.875v-4.312c0-0.33,0.117-0.615,0.346-0.857
					c0.23-0.24,0.51-0.363,0.84-0.363h7.674c0.373,0,0.682,0.116,0.922,0.346c0.242,0.232,0.363,0.523,0.363,0.875l-0.064,2.371
					c-0.025,0.264-0.053,0.73-0.084,1.4s-0.082,1.291-0.146,1.859c-0.199,1.934-0.869,3.686-2.012,5.256
					c-1.141,1.57-2.59,2.805-4.346,3.705s-3.604,1.35-5.533,1.35c-2.154,0-4.186-0.543-6.096-1.629
					c-1.91-1.088-3.447-2.564-4.611-4.432C514.515,191.47,513.935,189.448,513.935,187.274z"/>
			</g>
		</g>
	</g>
</g>
</svg>
