<?xml version="1.0" encoding="utf-8"?>
<!-- Generator: Adobe Illustrator 16.0.0, SVG Export Plug-In . SVG Version: 6.00 Build 0)  -->
<!DOCTYPE svg PUBLIC "-//W3C//DTD SVG 1.1//EN" "http://www.w3.org/Graphics/SVG/1.1/DTD/svg11.dtd" [
	<!ENTITY ns_extend "http://ns.adobe.com/Extensibility/1.0/">
	<!ENTITY ns_ai "http://ns.adobe.com/AdobeIllustrator/10.0/">
	<!ENTITY ns_graphs "http://ns.adobe.com/Graphs/1.0/">
	<!ENTITY ns_vars "http://ns.adobe.com/Variables/1.0/">
	<!ENTITY ns_imrep "http://ns.adobe.com/ImageReplacement/1.0/">
	<!ENTITY ns_sfw "http://ns.adobe.com/SaveForWeb/1.0/">
	<!ENTITY ns_custom "http://ns.adobe.com/GenericCustomNamespace/1.0/">
	<!ENTITY ns_adobe_xpath "http://ns.adobe.com/XPath/1.0/">
]>
<svg version="1.1" xmlns:x="&ns_extend;" xmlns:i="&ns_ai;" xmlns:graph="&ns_graphs;"
	 xmlns="http://www.w3.org/2000/svg" xmlns:xlink="http://www.w3.org/1999/xlink" x="0px" y="0px" width="576px" height="360px"
	 viewBox="0 0 576 360" enable-background="new 0 0 576 360" xml:space="preserve">
<metadata>
	<sfw  xmlns="&ns_sfw;">
		<slices></slices>
		<sliceSourceBounds  width="454.713" height="152.649" bottomLeftOrigin="true" y="-247.896" x="-47.357"></sliceSourceBounds>
	</sfw>
</metadata>
<g id="a_shadow">
</g>
<g id="x_shadow">
</g>
<g id="ax_outline">
	<path fill="none" stroke="#000000" stroke-width="2" stroke-miterlimit="10" d="M457.583,247.896"/>
	<path fill="none" stroke="#000000" stroke-width="2" stroke-miterlimit="10" d="M457.583,247.896"/>
</g>
<g id="final">
	<g>
		<g>
			<g>
				<path d="M262.899,195.431c0-0.375,0.058-0.745,0.181-1.112c0.123-0.364,0.196-0.572,0.217-0.613l7.376-18.712
					c0.201-0.465,0.493-0.824,0.882-1.079c0.388-0.255,0.847-0.395,1.381-0.416h2.722h2.061c0.576,0.021,1.052,0.179,1.43,0.466
					c0.378,0.288,0.632,0.63,0.762,1.028l7.448,18.712c0.019,0.112,0.085,0.334,0.196,0.678c0.11,0.347,0.167,0.673,0.167,0.983
					c0,0.797-0.442,1.264-1.331,1.396h-4.55c-0.465,0-0.86-0.084-1.179-0.249c-0.322-0.169-0.526-0.406-0.616-0.714l-1.031-3.323
					h-7.408l-1.032,3.323c-0.089,0.308-0.286,0.545-0.597,0.714c-0.312,0.165-0.699,0.249-1.164,0.249h-4.622
					C263.328,196.63,262.899,196.186,262.899,195.431z M275.658,186.858h2.16l-2.625-7.811l-2.591,7.811H275.658z"/>
				<path d="M290.114,195.565c0-0.267,0.078-0.485,0.232-0.664l7.545-10.236l-7.18-9.239c-0.135-0.199-0.198-0.418-0.198-0.666
					c0-0.285,0.101-0.552,0.298-0.795c0.199-0.246,0.432-0.367,0.697-0.367h6.58c0.312,0,0.586,0.146,0.833,0.432l3.322,4.587
					l3.389-4.587c0.087-0.133,0.206-0.237,0.347-0.318c0.147-0.074,0.31-0.114,0.481-0.114h6.519c0.286,0,0.533,0.114,0.745,0.348
					c0.212,0.232,0.315,0.506,0.315,0.814c0,0.268-0.074,0.49-0.234,0.666l-7.473,9.207l7.873,10.269
					c0.136,0.198,0.202,0.412,0.202,0.629c0,0.29-0.104,0.551-0.3,0.783c-0.199,0.231-0.454,0.349-0.766,0.349h-7.112
					c-0.174,0-0.349-0.055-0.515-0.167c-0.166-0.108-0.303-0.241-0.415-0.398l-3.057-4.317l-2.99,4.317
					c-0.332,0.379-0.612,0.565-0.832,0.565h-7.21c-0.312,0-0.57-0.11-0.782-0.337C290.221,196.106,290.114,195.852,290.114,195.565z
					"/>
				<path d="M345.574,173.598c0.378,0,0.711,0.139,0.999,0.417c0.289,0.275,0.432,0.592,0.432,0.946v3.854
					c0,0.378-0.143,0.711-0.432,0.998c-0.288,0.287-0.621,0.432-0.999,0.432h-5.247v15.02c0,0.421-0.13,0.776-0.386,1.06
					c-0.253,0.293-0.571,0.437-0.944,0.437h-4.421c-0.378,0-0.691-0.136-0.945-0.418c-0.257-0.273-0.384-0.625-0.384-1.045
					l0.232-15.053h-5.317c-0.422,0-0.772-0.145-1.047-0.432c-0.276-0.286-0.411-0.62-0.411-0.998v-3.854
					c0-0.375,0.135-0.697,0.411-0.961c0.274-0.27,0.625-0.402,1.047-0.402H345.574z"/>
				<path d="M350.496,186.061l-0.035-11.562c0-0.665,0.375-1,1.129-1h4.356c0.44,0,0.785,0.088,1.028,0.268
					c0.244,0.175,0.365,0.418,0.365,0.732l0.135,10.833c0.019,1.44,0.413,2.573,1.178,3.405c0.766,0.83,1.8,1.246,3.108,1.246
					c2.57,0,3.854-1.463,3.854-4.389l0.066-11.031c0-0.289,0.135-0.538,0.415-0.749c0.276-0.208,0.604-0.315,0.98-0.315h4.42
					c0.422,0,0.748,0.093,0.98,0.284c0.23,0.189,0.339,0.448,0.315,0.781v4.917c0,3.058,0.007,4.962,0.017,5.718
					c0.013,0.751,0.015,1.15,0.015,1.193c0.025,1.797-0.28,3.493-0.911,5.1c-0.629,1.608-1.773,2.952-3.422,4.023
					c-1.653,1.075-3.873,1.611-6.663,1.611c-2.548,0-4.67-0.519-6.362-1.561c-1.694-1.04-2.951-2.399-3.759-4.074
					C350.898,189.822,350.496,188.011,350.496,186.061z"/>
				<path d="M395.159,173.598c0.374,0,0.708,0.139,0.997,0.417c0.288,0.275,0.43,0.592,0.43,0.946v3.854
					c0,0.378-0.142,0.711-0.43,0.998c-0.289,0.287-0.623,0.432-0.997,0.432h-5.251v15.02c0,0.421-0.129,0.776-0.382,1.06
					c-0.254,0.293-0.571,0.437-0.947,0.437h-4.421c-0.375,0-0.691-0.136-0.946-0.418c-0.256-0.273-0.385-0.625-0.385-1.045
					l0.233-15.053h-5.314c-0.425,0-0.771-0.145-1.046-0.432c-0.278-0.286-0.415-0.62-0.415-0.998v-3.854
					c0-0.375,0.137-0.697,0.415-0.961c0.274-0.27,0.621-0.402,1.046-0.402H395.159z"/>
				<path d="M397.921,185.263c0-2.192,0.546-4.22,1.645-6.082c1.095-1.858,2.573-3.338,4.434-4.437
					c1.862-1.095,3.889-1.643,6.086-1.643c2.192,0,4.223,0.548,6.094,1.643c1.873,1.099,3.359,2.579,4.454,4.437
					c1.097,1.862,1.646,3.89,1.646,6.082c0,2.194-0.55,4.22-1.646,6.081c-1.095,1.862-2.581,3.342-4.454,4.438
					c-1.871,1.096-3.901,1.644-6.094,1.644c-2.197,0-4.224-0.548-6.086-1.644c-1.86-1.097-3.339-2.576-4.434-4.438
					C398.467,189.482,397.921,187.457,397.921,185.263z M415.268,184.963c0-0.951-0.245-1.826-0.729-2.624
					c-0.491-0.796-1.14-1.433-1.945-1.912c-0.812-0.477-1.68-0.715-2.61-0.715c-0.978,0-1.864,0.238-2.676,0.715
					c-0.806,0.479-1.445,1.116-1.913,1.912c-0.463,0.798-0.697,1.673-0.697,2.624c0,0.952,0.234,1.832,0.697,2.644
					c0.468,0.81,1.107,1.449,1.913,1.926c0.812,0.479,1.698,0.72,2.676,0.72c0.931,0,1.799-0.241,2.61-0.72
					c0.806-0.477,1.454-1.116,1.945-1.926C415.022,186.795,415.268,185.915,415.268,184.963z"/>
				<path d="M438.197,194.768c-0.247-1.507-0.75-2.554-1.514-3.139c-0.769-0.586-1.713-0.937-2.843-1.048
					c-0.155-0.023-0.343-0.035-0.562-0.035c-0.223,0-0.411,0.023-0.567,0.069l-0.035,0.032v4.254c0,0.421-0.037,0.758-0.114,1.013
					c-0.077,0.256-0.286,0.465-0.631,0.631c-0.343,0.166-0.883,0.249-1.611,0.249h-3.092c-0.686,0.023-1.229-0.102-1.624-0.382
					c-0.4-0.277-0.602-0.66-0.602-1.146l0.03-8.972v-11.565c0-0.333,0.171-0.625,0.501-0.882c0.332-0.254,0.732-0.38,1.196-0.38
					h7.541c3.324-0.022,5.783,0.537,7.38,1.679c1.597,1.141,2.458,2.929,2.596,5.364c0.021,0.224,0.024,0.396,0.014,0.518
					c-0.01,0.12-0.014,0.229-0.014,0.313v0.697c-0.112,1.287-0.451,2.309-1.016,3.059c-0.567,0.753-1.312,1.455-2.245,2.093
					l0.036,0.033c1.081,0.533,1.947,1.297,2.591,2.293c0.644,0.999,1.078,2.039,1.312,3.123c0.234,1.089,0.326,2.063,0.282,2.927
					c0,0.376-0.133,0.676-0.398,0.896c-0.268,0.223-0.642,0.332-1.13,0.332h-4.053c-0.577,0-0.951-0.143-1.113-0.434
					c-0.168-0.286-0.258-0.592-0.268-0.909C438.232,195.127,438.216,194.901,438.197,194.768z M433.243,184.366
					c1.02,0,1.956-0.183,2.809-0.549c0.854-0.362,1.279-1.214,1.279-2.543c0-0.928-0.282-1.636-0.852-2.125
					c-0.564-0.488-1.376-0.732-2.439-0.732h-2.722v0.333v5.617h0.23h0.1H433.243z"/>
				<path d="M449.296,195.299v-20.271c0-0.421,0.131-0.781,0.395-1.082c0.271-0.297,0.622-0.448,1.066-0.448h4.552
					c0.401,0,0.735,0.15,1.016,0.448c0.274,0.301,0.415,0.661,0.415,1.082v20.271c0,0.465-0.141,0.836-0.415,1.113
					c-0.28,0.28-0.614,0.417-1.016,0.417h-4.552c-0.444,0-0.795-0.137-1.066-0.417C449.427,196.135,449.296,195.764,449.296,195.299
					z"/>
				<path d="M480.631,196.528c-0.133-0.066-1.095-1.041-2.893-2.926c-1.792-1.884-4.419-4.663-7.876-8.34
					c-0.33-0.335-0.542-0.501-0.631-0.501c-0.086,0-0.146,0.053-0.166,0.154c-0.021,0.099-0.034,0.26-0.034,0.481v9.937
					c0,0.353-0.126,0.662-0.384,0.931c-0.253,0.264-0.571,0.397-0.944,0.397h-4.421c-0.42,0-0.783-0.172-1.097-0.513
					c-0.313-0.346-0.467-0.751-0.467-1.215V175.36c0-0.49,0.168-0.918,0.502-1.296c0.333-0.376,0.719-0.565,1.163-0.565h4.12
					c0.378,0,0.668,0.054,0.88,0.15c0.21,0.1,0.479,0.328,0.814,0.682c1.02,1.062,2.681,2.797,4.985,5.199
					c2.305,2.404,4.109,4.27,5.417,5.6c0.179,0.111,0.301,0.168,0.363,0.168c0.135,0,0.204-0.178,0.204-0.536v-9.901
					c0-0.354,0.131-0.667,0.398-0.946c0.264-0.275,0.562-0.416,0.895-0.416h4.22c0.487,0,0.909,0.179,1.265,0.532
					c0.354,0.354,0.529,0.765,0.529,1.232v19.77c0,0.446-0.168,0.842-0.516,1.197c-0.342,0.355-0.73,0.532-1.175,0.532h-3.761
					c-0.419,0-0.712-0.016-0.876-0.051C480.979,196.678,480.81,196.618,480.631,196.528z"/>
				<path d="M490.5,185.13c0-2.259,0.529-4.325,1.597-6.198c1.065-1.873,2.502-3.344,4.316-4.42
					c1.819-1.073,3.792-1.611,5.914-1.611c0.426,0,0.747,0.011,0.97,0.034c1.283,0.088,2.277,0.234,2.987,0.433l0.169,0.035
					c0.242,0.022,0.432,0.108,0.564,0.265c0.131,0.153,0.199,0.353,0.199,0.599c0,0.22-0.046,0.43-0.135,0.63l-1.362,3.091
					c-0.351,0.91-0.887,1.36-1.595,1.36c-1.816,0-3.287,0.378-4.402,1.13c-1.119,0.755-1.846,1.875-2.178,3.359
					c-0.11,0.513-0.166,0.963-0.166,1.364c0,1.173,0.328,2.226,0.98,3.154c0.653,0.931,1.646,1.563,2.978,1.899
					c0.708,0.132,1.339,0.196,1.892,0.196c1.397,0,2.51-0.342,3.339-1.016c0.832-0.674,1.37-1.533,1.613-2.574h-1.86
					c-0.355,0-0.646-0.117-0.866-0.348c-0.218-0.235-0.332-0.525-0.332-0.882v-4.354c0-0.332,0.118-0.619,0.349-0.861
					c0.234-0.246,0.517-0.368,0.85-0.368h7.742c0.374,0,0.686,0.115,0.929,0.35c0.245,0.231,0.365,0.525,0.365,0.879l-0.066,2.394
					c-0.022,0.266-0.048,0.737-0.083,1.413c-0.029,0.678-0.083,1.301-0.147,1.877c-0.201,1.949-0.876,3.717-2.028,5.302
					c-1.15,1.585-2.616,2.831-4.386,3.736c-1.773,0.911-3.636,1.362-5.581,1.362c-2.174,0-4.224-0.548-6.152-1.646
					c-1.923-1.096-3.479-2.582-4.651-4.469C491.088,189.362,490.5,187.324,490.5,185.13z"/>
			</g>
		</g>
		<g>
			<g>
				<path fill="#FFFFFF" stroke="#000000" stroke-width="1.5" stroke-miterlimit="10" d="M254.97,219.529"/>
				<g>
					<circle cx="241.599" cy="212.975" r="2.329"/>
					<g>
						<polygon points="92.554,103.983 100.568,105.251 114.056,134.144 87.892,223.247 78.528,224.235 106.215,134.144 						"/>
						<polygon points="112.875,149.233 122.188,149.627 160.75,234.463 152.642,236.176 						"/>
						<polygon points="152.797,95.248 145.099,96.525 145.099,144.373 179.464,185.177 147.658,225.2 152.642,236.176 
							192.337,185.089 154.469,140.176 						"/>
						<polygon points="248.718,119.511 235.33,120.647 200.632,160.41 210.758,168.669 						"/>
						<polyline points="224.007,224.235 206.003,200.77 200.632,208.58 212.064,223.882 224.007,225.2 						"/>
						<g>
							<polygon fill="#FFFFFF" points="94.674,225.635 104.845,183.825 91.068,183.006 78.256,223.136 61.908,221.008 
								92.805,106.883 105.575,134.221 94.522,170.997 107.883,172.005 113.127,152.189 150.951,234.885 							"/>
							<path d="M93.056,109.783l11.452,24.516l-10.584,35.219l-0.716,2.383l2.481,0.187l11.291,0.852l1.658,0.125l0.426-1.608
								l4.317-16.312l35.882,78.449L95.9,224.822l9.633-39.598l0.566-2.327l-2.391-0.142l-11.806-0.702l-1.551-0.093l-0.473,1.48
								l-12.322,38.595l-14.386-1.872L93.056,109.783 M92.554,103.983L60.643,221.852l18.312,2.384l12.83-40.186l11.806,0.702
								l-10.143,41.694l59.194,9.729l-39.767-86.942l-5.746,21.712l-11.291-0.852l10.804-35.95L92.554,103.983L92.554,103.983z"/>
						</g>
						<g>
							<polygon fill="#FFFFFF" points="192.589,184.43 155.102,139.45 153.883,98.127 210.746,166.838 247.824,122.333 
								247.201,158.126 226.264,185.265 254.101,220.046 224.586,224.132 209.833,205.749 191.351,229.253 155.056,234.817 							
								"/>
							<path d="M154.968,101.008l54.239,65.54l1.536,1.856l1.542-1.851l34.49-41.398l-0.568,32.623l-20.254,26.254l-0.96,1.244
								l0.982,1.228l26.246,32.794l-27.209,3.767l-13.61-16.959l-1.576-1.963l-1.556,1.979l-17.46,22.204l-33.495,5.136
								l35.606-47.801l0.941-1.264l-1.009-1.211l-36.761-44.109L154.968,101.008 M152.797,95.248l1.315,44.577l37.204,44.64
								l-38.519,51.711l39.096-5.994l17.948-22.825l14.32,17.844l31.819-4.405l-28.445-35.542l20.659-26.778l0.679-38.964
								l-38.125,45.762L152.797,95.248L152.797,95.248z M248.874,119.511h0.005H248.874z"/>
						</g>
						
							<line fill="#FFFFFF" stroke="#000000" stroke-width="2" stroke-miterlimit="10" x1="113.167" y1="152.125" x2="94.332" y2="226.591"/>
						
							<line fill="#FFFFFF" stroke="#000000" stroke-width="2" stroke-linecap="round" stroke-miterlimit="10" x1="94.479" y1="171.063" x2="90.603" y2="184.813"/>
						
							<line fill="#FFFFFF" stroke="#000000" stroke-width="2" stroke-linecap="round" stroke-miterlimit="10" x1="210.777" y1="166.782" x2="225.893" y2="184.903"/>
						
							<line fill="none" stroke="#000000" stroke-width="3" stroke-linecap="round" stroke-miterlimit="10" x1="191.335" y1="183.772" x2="210.143" y2="206.94"/>
						<g>
							<polygon points="74.287,218.506 66.463,217.747 94.481,120.154 99.018,134.447 97.765,134.846 94.544,124.703 
								68.164,216.591 74.414,217.196 							"/>
						</g>
						<path fill="none" stroke="#000000" stroke-width="1.5" stroke-linecap="round" stroke-miterlimit="10" d="M75.008,211.931"/>
						<path fill="none" stroke="#000000" stroke-width="1.5" stroke-linecap="round" stroke-miterlimit="10" d="M94.332,141.534"/>
						<g>
							<path d="M141.166,227.482l-24.506-4.764c-0.357-0.069-0.59-0.414-0.521-0.771s0.413-0.588,0.771-0.52l21.987,4.273
								l-24.623-53.494l-10.993,49.571c-0.078,0.353-0.432,0.575-0.784,0.499c-0.355-0.08-0.579-0.431-0.5-0.786l11.837-53.385
								L141.166,227.482z"/>
						</g>
						<g>
							<path d="M126.329,217.723c-0.257,0-0.501-0.151-0.607-0.403l-10.302-24.596l-3.592,21.943
								c-0.059,0.358-0.398,0.599-0.755,0.545c-0.359-0.06-0.602-0.397-0.543-0.755l4.333-26.472l12.074,28.826
								c0.14,0.335-0.018,0.721-0.353,0.859C126.5,217.707,126.415,217.723,126.329,217.723z"/>
						</g>
						<g>
							<path d="M169.75,227.08c-0.316,0-0.596-0.229-0.649-0.551c-0.058-0.359,0.186-0.697,0.543-0.756l18.002-2.939l17.202-21.766
								c0.224-0.285,0.639-0.334,0.924-0.108s0.333,0.64,0.107,0.925l-17.517,22.167l-18.505,3.021
								C169.821,227.078,169.785,227.08,169.75,227.08z"/>
						</g>
						<g>
							<path d="M222.325,180.666c-0.152,0-0.305-0.052-0.43-0.159c-0.275-0.238-0.306-0.652-0.068-0.928l21.521-24.967v-18.799
								l-24.138,28.721c-0.233,0.278-0.647,0.314-0.927,0.08c-0.277-0.234-0.313-0.648-0.08-0.927l26.46-31.485v22.899
								l-21.839,25.338C222.694,180.589,222.51,180.666,222.325,180.666z"/>
						</g>
						<g>
							<path d="M183.801,217.723c-0.146,0-0.293-0.049-0.415-0.147c-0.281-0.229-0.324-0.644-0.094-0.927l17.146-21.058
								c0.229-0.282,0.644-0.324,0.925-0.096c0.281,0.23,0.324,0.644,0.095,0.927l-17.146,21.061
								C184.182,217.64,183.992,217.723,183.801,217.723z"/>
						</g>
						<g>
							<path d="M218.076,175.627c-0.146,0-0.292-0.048-0.416-0.148c-0.281-0.229-0.323-0.644-0.095-0.925l18.232-22.395
								c0.229-0.28,0.644-0.325,0.926-0.095c0.281,0.229,0.323,0.644,0.094,0.926l-18.232,22.394
								C218.457,175.544,218.267,175.627,218.076,175.627z"/>
						</g>
						<g>
							<path d="M231.356,207.49c-0.184,0-0.367-0.078-0.498-0.229l-70.766-82.095v-9.949c0-0.363,0.294-0.658,0.658-0.658
								c0.364,0,0.658,0.294,0.658,0.658v9.46l70.446,81.725c0.237,0.275,0.207,0.69-0.068,0.928
								C231.662,207.436,231.509,207.49,231.356,207.49z"/>
						</g>
						<g>
							<path d="M227.971,215.97l-0.242-0.284l-66.047-77.398c-0.236-0.276-0.203-0.692,0.073-0.928
								c0.275-0.235,0.69-0.203,0.928,0.074l65.805,77.115l13.194-2.212c0.357-0.062,0.697,0.183,0.757,0.541
								c0.061,0.356-0.181,0.696-0.54,0.758L227.971,215.97z"/>
						</g>
						<g>
							<path d="M76.113,210.854c-0.059,0-0.119-0.008-0.179-0.024c-0.349-0.099-0.554-0.461-0.455-0.811l18.797-66.896
								c0.099-0.35,0.461-0.555,0.811-0.456c0.351,0.098,0.554,0.461,0.456,0.812l-18.798,66.895
								C76.664,210.665,76.4,210.854,76.113,210.854z"/>
						</g>
						<circle cx="232.152" cy="207.827" r="2.329"/>
						<circle cx="218.707" cy="164.015" r="2.329"/>
						<circle cx="236.308" cy="152.575" r="2.329"/>
						<circle cx="183.802" cy="217.064" r="2.329"/>
						<circle cx="169.75" cy="226.424" r="2.329"/>
						<g>
							
								<rect x="189.437" y="188.196" transform="matrix(0.7893 0.614 -0.614 0.7893 161.9125 -74.9081)" width="1.315" height="20.499"/>
						</g>
						<circle cx="183.802" cy="206.536" r="2.329"/>
						<circle cx="115.817" cy="221.891" r="2.329"/>
						<circle cx="126.329" cy="217.064" r="2.329"/>
						<circle cx="111.178" cy="214.554" r="2.329"/>
						<circle cx="102.641" cy="221.54" r="2.329"/>
						<circle cx="74.35" cy="217.853" r="2.329"/>
						<circle cx="76.199" cy="209.875" r="2.329"/>
						<circle cx="94.91" cy="143.302" r="2.329"/>
						<circle cx="98.392" cy="134.415" r="2.329"/>
						<circle cx="162.182" cy="137.86" r="2.329"/>
						<circle cx="160.75" cy="115.217" r="2.329"/>
					</g>
				</g>
			</g>
			<circle cx="241.599" cy="212.975" r="2.329"/>
		</g>
	</g>
</g>
</svg>
