<?xml version="1.0" encoding="utf-8"?>
<!-- Generator: Adobe Illustrator 16.0.0, SVG Export Plug-In . SVG Version: 6.00 Build 0)  -->
<!DOCTYPE svg PUBLIC "-//W3C//DTD SVG 1.1//EN" "http://www.w3.org/Graphics/SVG/1.1/DTD/svg11.dtd" [
	<!ENTITY ns_extend "http://ns.adobe.com/Extensibility/1.0/">
	<!ENTITY ns_ai "http://ns.adobe.com/AdobeIllustrator/10.0/">
	<!ENTITY ns_graphs "http://ns.adobe.com/Graphs/1.0/">
	<!ENTITY ns_vars "http://ns.adobe.com/Variables/1.0/">
	<!ENTITY ns_imrep "http://ns.adobe.com/ImageReplacement/1.0/">
	<!ENTITY ns_sfw "http://ns.adobe.com/SaveForWeb/1.0/">
	<!ENTITY ns_custom "http://ns.adobe.com/GenericCustomNamespace/1.0/">
	<!ENTITY ns_adobe_xpath "http://ns.adobe.com/XPath/1.0/">
]>
<svg version="1.1" xmlns:x="&ns_extend;" xmlns:i="&ns_ai;" xmlns:graph="&ns_graphs;"
	 xmlns="http://www.w3.org/2000/svg" xmlns:xlink="http://www.w3.org/1999/xlink" x="0px" y="0px" width="360px" height="360px"
	 viewBox="0 0 360 360" enable-background="new 0 0 360 360" xml:space="preserve">
<metadata>
	<sfw  xmlns="&ns_sfw;">
		<slices></slices>
		<sliceSourceBounds  width="558.305" height="214.205" bottomLeftOrigin="true" y="-287.103" x="31.666"></sliceSourceBounds>
	</sfw>
</metadata>
<g id="a_shadow">
</g>
<g id="x_shadow">
</g>
<g id="ax_outline">
	<path fill="none" stroke="#000000" stroke-width="2" stroke-miterlimit="10" d="M349.583,247.896"/>
	<path fill="none" stroke="#000000" stroke-width="2" stroke-miterlimit="10" d="M349.583,247.896"/>
</g>
<g id="final">
	<g>
		<path fill="#FFFFFF" stroke="#000000" stroke-width="1.5" stroke-miterlimit="10" d="M327.033,261.802"/>
		<polygon points="80.169,86.176 92.351,88.102 112.851,132.019 73.083,267.452 58.851,268.954 100.935,132.019 		"/>
		<polygon points="111.499,154.954 125.212,155.552 183.824,284.499 171.5,287.103 		"/>
		<polygon points="171.5,72.897 160.035,74.84 160.035,147.565 212.27,209.586 163.925,270.419 171.5,287.103 231.834,209.453 
			174.277,141.187 		"/>
		<polygon points="317.531,109.776 297.182,111.504 244.443,171.942 259.834,184.494 		"/>
		<polyline points="279.971,268.954 252.607,233.287 244.443,245.158 261.818,268.415 279.971,270.419 		"/>
		<g>
			<polygon fill="#FFFFFF" points="82.762,271.503 98.747,208.043 78.284,206.831 58.8,267.854 32.931,264.485 80.42,89.076 
				100.516,132.096 83.835,187.594 103.754,188.598 111.754,157.936 169.815,285.812 			"/>
			<path d="M80.671,91.976l18.777,40.198l-16.203,53.91l-0.734,2.444l2.549,0.128l17.831,0.898l1.625,0.082l0.411-1.574
				l7.083-27.145l56.121,123.605l-84.134-13.83l15.424-61.234l0.59-2.342l-2.411-0.143l-18.482-1.095l-1.551-0.092l-0.473,1.479
				l-18.993,59.488l-23.907-3.113L80.671,91.976 M80.169,86.176L31.666,265.329l27.833,3.625L79,207.875l18.482,1.095
				l-15.956,63.344l89.973,14.789l-60-132.148l-8.507,32.604l-17.831-0.898l16.422-54.641L80.169,86.176L80.169,86.176z"/>
		</g>
		<g>
			<polygon fill="#FFFFFF" points="231.319,208.469 174.489,140.278 172.585,75.777 259.58,180.898 316.482,112.598 
				315.506,168.651 283.826,209.713 326.453,262.977 280.396,269.351 258.197,241.691 230.382,277.062 173.758,285.744 			"/>
			<path d="M173.67,78.658l84.372,101.95l1.536,1.855l1.541-1.85l54.313-65.193l-0.921,52.883l-30.997,40.177l-0.961,1.244
				l0.982,1.228l41.037,51.275l-43.753,6.056l-21.056-26.235l-1.575-1.963l-1.557,1.979l-26.793,34.071l-53.823,8.253l55.634-74.688
				l0.942-1.264l-1.01-1.211l-56.105-67.32L173.67,78.658 M171.5,72.897l2,67.756l56.547,67.851L171.5,287.103l59.424-9.111
				l27.281-34.692l21.766,27.12l48.363-6.693l-43.236-54.024L316.5,169l1.031-59.224l-57.948,69.556L171.5,72.897L171.5,72.897z
				 M317.531,109.776h0.005H317.531z"/>
		</g>
		
			<line fill="#FFFFFF" stroke="#000000" stroke-width="2" stroke-miterlimit="10" x1="112.093" y1="156.262" x2="82.871" y2="272.534"/>
		
			<line fill="#FFFFFF" stroke="#000000" stroke-width="2" stroke-miterlimit="10" x1="84.24" y1="186.342" x2="77.406" y2="209.75"/>
		
			<line fill="#FFFFFF" stroke="#000000" stroke-width="2" stroke-linecap="round" stroke-miterlimit="10" x1="259.583" y1="180.583" x2="284.249" y2="209.833"/>
		<line fill="none" stroke="#000000" stroke-width="3" stroke-miterlimit="10" x1="229.75" y1="207.25" x2="258.205" y2="242.5"/>
		<g>
			<polygon points="52.403,260.245 40.512,259.091 83.098,110.755 89.995,132.479 88.089,133.085 83.195,117.668 43.098,257.333 
				52.597,258.255 			"/>
		</g>
		<path fill="none" stroke="#000000" stroke-width="1.5" stroke-linecap="round" stroke-miterlimit="10" d="M53.5,250.25"/>
		<path fill="none" stroke="#000000" stroke-width="1.5" stroke-linecap="round" stroke-miterlimit="10" d="M82.871,143.25"/>
		<g>
			<path d="M154.058,273.888l-37.249-7.239c-0.542-0.105-0.896-0.63-0.791-1.172c0.105-0.543,0.628-0.896,1.172-0.791l33.418,6.495
				l-37.425-81.309l-16.708,75.345c-0.119,0.538-0.656,0.875-1.192,0.76c-0.54-0.12-0.879-0.654-0.76-1.193l17.993-81.144
				L154.058,273.888z"/>
		</g>
		<g>
			<path d="M131.506,259.055c-0.391,0-0.762-0.23-0.923-0.613l-15.66-37.383l-5.459,33.353c-0.089,0.545-0.606,0.91-1.148,0.826
				c-0.545-0.09-0.915-0.604-0.825-1.148l6.585-40.231l18.352,43.811c0.213,0.51-0.026,1.096-0.536,1.309
				C131.766,259.03,131.635,259.055,131.506,259.055z"/>
		</g>
		<g>
			<path d="M197.504,273.278c-0.481,0-0.906-0.349-0.986-0.839c-0.089-0.545,0.281-1.06,0.826-1.148l27.362-4.466l26.145-33.085
				c0.342-0.433,0.972-0.507,1.404-0.164c0.434,0.342,0.507,0.971,0.164,1.404l-26.625,33.694l-28.128,4.591
				C197.611,273.274,197.558,273.278,197.504,273.278z"/>
		</g>
		<g>
			<path d="M277.416,202.731c-0.231,0-0.464-0.08-0.653-0.242c-0.418-0.361-0.465-0.992-0.104-1.411l32.711-37.95v-28.574
				l-36.688,43.654c-0.354,0.423-0.985,0.477-1.409,0.122c-0.423-0.355-0.478-0.986-0.122-1.409l40.219-47.855v34.805
				l-33.195,38.513C277.976,202.613,277.696,202.731,277.416,202.731z"/>
		</g>
		<g>
			<path d="M218.86,259.055c-0.222,0-0.445-0.073-0.631-0.225c-0.428-0.349-0.492-0.979-0.144-1.407l26.061-32.009
				c0.348-0.427,0.979-0.493,1.407-0.144c0.428,0.349,0.492,0.979,0.144,1.407l-26.061,32.009
				C219.439,258.929,219.151,259.055,218.86,259.055z"/>
		</g>
		<g>
			<path d="M270.956,195.07c-0.222,0-0.445-0.073-0.631-0.225c-0.428-0.349-0.492-0.979-0.144-1.406l27.711-34.039
				c0.348-0.427,0.979-0.494,1.407-0.144c0.428,0.349,0.492,0.979,0.144,1.407l-27.711,34.038
				C271.535,194.944,271.247,195.07,270.956,195.07z"/>
		</g>
		<g>
			<path d="M291.143,243.5c-0.28,0-0.56-0.117-0.758-0.347L182.824,118.372V103.25c0-0.552,0.447-1,1-1s1,0.448,1,1v14.378
				L291.9,241.847c0.36,0.419,0.313,1.05-0.104,1.411C291.606,243.42,291.374,243.5,291.143,243.5z"/>
		</g>
		<g>
			<path d="M285.995,256.389l-0.367-0.431L185.239,138.316c-0.358-0.42-0.309-1.051,0.111-1.41c0.419-0.357,1.05-0.31,1.41,0.112
				l100.021,117.21l20.054-3.361c0.544-0.097,1.06,0.276,1.151,0.821c0.091,0.544-0.276,1.06-0.821,1.151L285.995,256.389z"/>
		</g>
		<g>
			<path d="M55.179,248.615c-0.089,0-0.181-0.012-0.271-0.037c-0.532-0.149-0.842-0.702-0.692-1.233l28.571-101.678
				c0.149-0.532,0.701-0.844,1.233-0.692c0.532,0.149,0.842,0.702,0.692,1.233L56.142,247.886
				C56.018,248.327,55.616,248.615,55.179,248.615z"/>
		</g>
		<circle cx="306.71" cy="251.837" r="3.54"/>
		<circle cx="292.351" cy="244.013" r="3.54"/>
		<circle cx="271.917" cy="177.42" r="3.54"/>
		<circle cx="298.668" cy="160.033" r="3.54"/>
		<circle cx="218.861" cy="258.056" r="3.54"/>
		<circle cx="197.504" cy="272.279" r="3.54"/>
		<g>
			<rect x="227.426" y="214.176" transform="matrix(0.7891 0.6143 -0.6143 0.7891 189.3107 -91.8594)" width="2" height="31.156"/>
		</g>
		<circle cx="218.861" cy="242.052" r="3.54"/>
		<circle cx="115.527" cy="265.389" r="3.54"/>
		<circle cx="131.506" cy="258.056" r="3.54"/>
		<circle cx="108.478" cy="254.237" r="3.54"/>
		<circle cx="95.5" cy="264.855" r="3.54"/>
		<circle cx="52.5" cy="259.251" r="3.54"/>
		<circle cx="55.311" cy="247.126" r="3.54"/>
		<circle cx="83.75" cy="145.938" r="3.54"/>
		<circle cx="89.042" cy="132.431" r="3.54"/>
		<circle cx="186" cy="137.667" r="3.54"/>
		<circle cx="183.825" cy="103.25" r="3.54"/>
	</g>
	<g>
		<g>
			<path d="M442.502,178.873c0-0.22,0.034-0.436,0.105-0.649c0.071-0.213,0.114-0.334,0.127-0.358l4.309-10.931
				c0.117-0.271,0.288-0.481,0.516-0.63c0.227-0.149,0.494-0.23,0.807-0.243h1.59h1.204c0.336,0.013,0.614,0.104,0.835,0.272
				s0.369,0.368,0.445,0.601l4.35,10.931c0.012,0.065,0.051,0.195,0.115,0.396c0.064,0.203,0.098,0.393,0.098,0.574
				c0,0.466-0.258,0.738-0.777,0.815h-2.658c-0.271,0-0.502-0.049-0.688-0.146c-0.188-0.098-0.308-0.237-0.36-0.417l-0.602-1.94
				h-4.328l-0.603,1.94c-0.052,0.18-0.167,0.319-0.349,0.417c-0.183,0.097-0.408,0.146-0.68,0.146h-2.699
				C442.753,179.573,442.502,179.313,442.502,178.873z M449.955,173.865h1.262l-1.533-4.562l-1.514,4.562H449.955z"/>
			<path d="M458.398,178.952c0-0.156,0.046-0.284,0.137-0.389l4.407-5.979l-4.193-5.396c-0.079-0.116-0.116-0.244-0.116-0.389
				c0-0.167,0.059-0.322,0.174-0.465c0.117-0.144,0.252-0.214,0.407-0.214h3.845c0.181,0,0.342,0.085,0.485,0.252l1.941,2.68
				l1.979-2.68c0.051-0.077,0.12-0.139,0.202-0.186c0.086-0.043,0.18-0.066,0.281-0.066h3.808c0.167,0,0.312,0.066,0.436,0.203
				c0.123,0.136,0.184,0.296,0.184,0.476c0,0.156-0.044,0.286-0.136,0.389l-4.367,5.378l4.601,5.998
				c0.079,0.116,0.117,0.24,0.117,0.368c0,0.169-0.061,0.321-0.174,0.456c-0.117,0.136-0.266,0.204-0.449,0.204h-4.154
				c-0.101,0-0.202-0.031-0.3-0.097c-0.097-0.063-0.177-0.142-0.242-0.233l-1.785-2.522l-1.747,2.522
				c-0.194,0.222-0.357,0.33-0.486,0.33h-4.212c-0.182,0-0.333-0.064-0.456-0.195C458.461,179.268,458.398,179.119,458.398,178.952z
				"/>
			<path d="M490.796,166.12c0.22,0,0.415,0.081,0.583,0.243c0.168,0.161,0.252,0.346,0.252,0.553v2.252
				c0,0.221-0.084,0.415-0.252,0.582c-0.168,0.168-0.363,0.253-0.583,0.253h-3.065v8.773c0,0.246-0.076,0.454-0.225,0.62
				c-0.148,0.17-0.334,0.254-0.553,0.254h-2.582c-0.221,0-0.404-0.08-0.553-0.243c-0.15-0.161-0.225-0.365-0.225-0.611l0.137-8.793
				h-3.106c-0.246,0-0.45-0.085-0.611-0.253c-0.161-0.167-0.241-0.361-0.241-0.582v-2.252c0-0.219,0.08-0.407,0.241-0.562
				c0.161-0.157,0.365-0.234,0.611-0.234H490.796z"/>
			<path d="M493.67,173.399l-0.021-6.754c0-0.389,0.221-0.584,0.66-0.584h2.544c0.259,0,0.459,0.052,0.602,0.156
				c0.143,0.103,0.213,0.245,0.213,0.428l0.078,6.327c0.012,0.843,0.242,1.504,0.688,1.989c0.447,0.486,1.052,0.729,1.815,0.729
				c1.502,0,2.252-0.854,2.252-2.563l0.038-6.443c0-0.169,0.08-0.314,0.243-0.438c0.161-0.122,0.353-0.185,0.572-0.185h2.582
				c0.246,0,0.436,0.055,0.572,0.166c0.136,0.11,0.197,0.262,0.185,0.456v2.872c0,1.786,0.003,2.898,0.011,3.34
				c0.006,0.439,0.008,0.672,0.008,0.698c0.014,1.049-0.164,2.04-0.533,2.979c-0.367,0.939-1.035,1.724-1.998,2.35
				c-0.966,0.628-2.263,0.941-3.893,0.941c-1.488,0-2.729-0.303-3.717-0.911c-0.99-0.608-1.723-1.402-2.195-2.38
				C493.905,175.597,493.67,174.538,493.67,173.399z"/>
			<path d="M519.759,166.12c0.22,0,0.414,0.081,0.583,0.243c0.168,0.161,0.251,0.346,0.251,0.553v2.252
				c0,0.221-0.083,0.415-0.251,0.582c-0.169,0.168-0.363,0.253-0.583,0.253h-3.066v8.773c0,0.246-0.075,0.454-0.224,0.62
				c-0.148,0.17-0.333,0.254-0.553,0.254h-2.582c-0.221,0-0.404-0.08-0.553-0.243c-0.15-0.161-0.225-0.365-0.225-0.611l0.136-8.793
				h-3.104c-0.248,0-0.451-0.085-0.611-0.253c-0.162-0.167-0.242-0.361-0.242-0.582v-2.252c0-0.219,0.08-0.407,0.242-0.562
				c0.16-0.157,0.363-0.234,0.611-0.234H519.759z"/>
			<path d="M521.373,172.934c0-1.281,0.318-2.465,0.96-3.553c0.64-1.086,1.503-1.95,2.59-2.592c1.088-0.64,2.271-0.96,3.555-0.96
				c1.28,0,2.467,0.32,3.561,0.96c1.094,0.642,1.962,1.506,2.602,2.592c0.641,1.088,0.961,2.271,0.961,3.553
				s-0.32,2.466-0.961,3.552c-0.64,1.088-1.508,1.952-2.602,2.593s-2.28,0.96-3.561,0.96c-1.283,0-2.467-0.319-3.555-0.96
				c-1.087-0.641-1.95-1.505-2.59-2.593C521.691,175.399,521.373,174.215,521.373,172.934z M531.505,172.759
				c0-0.556-0.143-1.067-0.426-1.533c-0.287-0.466-0.665-0.838-1.137-1.117c-0.474-0.278-0.981-0.417-1.524-0.417
				c-0.57,0-1.09,0.139-1.562,0.417c-0.472,0.279-0.845,0.651-1.118,1.117c-0.27,0.466-0.406,0.978-0.406,1.533
				c0,0.557,0.137,1.07,0.406,1.544c0.273,0.473,0.646,0.847,1.118,1.125c0.473,0.279,0.992,0.42,1.562,0.42
				c0.543,0,1.051-0.141,1.524-0.42c0.472-0.278,0.85-0.652,1.137-1.125C531.362,173.829,531.505,173.315,531.505,172.759z"/>
			<path d="M544.898,178.485c-0.144-0.88-0.437-1.491-0.884-1.833c-0.447-0.343-1-0.547-1.66-0.613
				c-0.091-0.013-0.2-0.02-0.328-0.02c-0.131,0-0.241,0.014-0.331,0.04l-0.021,0.02v2.484c0,0.246-0.021,0.443-0.067,0.592
				c-0.045,0.149-0.168,0.271-0.368,0.368c-0.201,0.098-0.516,0.146-0.941,0.146h-1.807c-0.4,0.014-0.718-0.059-0.949-0.223
				c-0.233-0.162-0.351-0.385-0.351-0.67l0.019-5.241v-6.755c0-0.194,0.099-0.365,0.291-0.516c0.195-0.148,0.43-0.222,0.699-0.222
				h4.406c1.942-0.013,3.378,0.313,4.31,0.98c0.933,0.667,1.437,1.711,1.516,3.134c0.013,0.13,0.016,0.23,0.009,0.303
				c-0.006,0.07-0.009,0.133-0.009,0.183v0.407c-0.064,0.752-0.263,1.348-0.592,1.786c-0.331,0.44-0.768,0.85-1.312,1.223
				l0.021,0.02c0.634,0.312,1.139,0.758,1.514,1.34c0.377,0.583,0.631,1.19,0.768,1.824c0.137,0.636,0.19,1.204,0.164,1.71
				c0,0.22-0.077,0.395-0.231,0.522c-0.157,0.13-0.376,0.194-0.66,0.194h-2.368c-0.338,0-0.555-0.083-0.65-0.252
				c-0.098-0.168-0.149-0.347-0.155-0.532C544.919,178.695,544.91,178.563,544.898,178.485z M542.005,172.41
				c0.596,0,1.143-0.107,1.642-0.321c0.498-0.212,0.747-0.708,0.747-1.485c0-0.542-0.165-0.956-0.497-1.241
				c-0.329-0.285-0.805-0.428-1.426-0.428h-1.591v0.194v3.281h0.136h0.058H542.005z"/>
			<path d="M551.382,178.796v-11.841c0-0.246,0.077-0.456,0.23-0.632c0.158-0.174,0.364-0.262,0.624-0.262h2.658
				c0.234,0,0.43,0.088,0.593,0.262c0.16,0.176,0.242,0.386,0.242,0.632v11.841c0,0.271-0.082,0.488-0.242,0.65
				c-0.163,0.164-0.358,0.243-0.593,0.243h-2.658c-0.26,0-0.466-0.079-0.624-0.243C551.459,179.284,551.382,179.067,551.382,178.796
				z"/>
			<path d="M569.686,179.515c-0.077-0.04-0.64-0.608-1.688-1.709c-1.048-1.101-2.581-2.725-4.601-4.872
				c-0.194-0.195-0.317-0.292-0.369-0.292c-0.051,0-0.085,0.029-0.097,0.089c-0.013,0.058-0.02,0.153-0.02,0.282v5.804
				c0,0.206-0.075,0.387-0.225,0.543c-0.148,0.155-0.333,0.232-0.552,0.232h-2.582c-0.246,0-0.458-0.1-0.641-0.3
				c-0.183-0.201-0.272-0.438-0.272-0.71v-11.433c0-0.286,0.098-0.537,0.293-0.758c0.193-0.22,0.42-0.33,0.68-0.33h2.405
				c0.222,0,0.392,0.031,0.515,0.088c0.123,0.059,0.281,0.191,0.476,0.398c0.595,0.621,1.565,1.634,2.911,3.038
				c1.347,1.404,2.401,2.493,3.165,3.271c0.104,0.064,0.176,0.098,0.213,0.098c0.078,0,0.117-0.104,0.117-0.312v-5.784
				c0-0.207,0.077-0.39,0.234-0.553c0.154-0.161,0.328-0.243,0.522-0.243h2.465c0.284,0,0.531,0.104,0.739,0.311
				c0.207,0.207,0.309,0.447,0.309,0.72v11.549c0,0.26-0.099,0.491-0.301,0.699c-0.2,0.208-0.428,0.311-0.688,0.311H570.5
				c-0.245,0-0.416-0.009-0.513-0.029C569.89,179.602,569.79,179.566,569.686,179.515z"/>
			<path d="M575.451,172.856c0-1.32,0.31-2.526,0.932-3.621c0.622-1.094,1.462-1.953,2.522-2.582
				c1.062-0.627,2.215-0.941,3.455-0.941c0.248,0,0.436,0.007,0.565,0.02c0.75,0.052,1.331,0.137,1.746,0.253l0.098,0.021
				c0.142,0.013,0.252,0.063,0.329,0.154c0.077,0.09,0.117,0.206,0.117,0.35c0,0.129-0.026,0.252-0.078,0.368l-0.796,1.806
				c-0.206,0.531-0.519,0.795-0.932,0.795c-1.062,0-1.92,0.22-2.571,0.66c-0.654,0.44-1.078,1.094-1.272,1.961
				c-0.064,0.299-0.098,0.562-0.098,0.797c0,0.686,0.191,1.3,0.573,1.843c0.381,0.544,0.961,0.913,1.738,1.109
				c0.414,0.077,0.782,0.114,1.105,0.114c0.815,0,1.466-0.198,1.95-0.593c0.486-0.394,0.8-0.896,0.942-1.504h-1.086
				c-0.208,0-0.377-0.068-0.506-0.203c-0.129-0.137-0.193-0.307-0.193-0.515v-2.544c0-0.193,0.068-0.36,0.203-0.504
				c0.137-0.143,0.301-0.214,0.496-0.214h4.521c0.22,0,0.401,0.067,0.543,0.204c0.143,0.136,0.214,0.308,0.214,0.514l-0.038,1.398
				c-0.014,0.155-0.029,0.43-0.049,0.826c-0.018,0.395-0.049,0.759-0.087,1.096c-0.117,1.139-0.512,2.171-1.185,3.097
				s-1.528,1.653-2.562,2.183c-1.036,0.531-2.124,0.796-3.261,0.796c-1.27,0-2.467-0.32-3.594-0.961
				c-1.123-0.641-2.031-1.509-2.717-2.61C575.794,175.328,575.451,174.138,575.451,172.856z"/>
		</g>
	</g>
</g>
</svg>
